<svg xmlns="http://www.w3.org/2000/svg" xmlns:xlink="http://www.w3.org/1999/xlink" width="860" height="460" viewBox="0 0 860 460" font-family="ui-monospace, SFMono-Regular, Menlo, Monaco, Consolas, monospace"><style>
        @keyframes cascadeIn {
            0% { opacity: 0; transform: translateY(14px); }
            100% { opacity: 1; transform: translateY(0); }
        }
        @keyframes flowSweep {
            0% { transform: translateX(-900px); }
            35%, 100% { transform: translateX(900px); }
        }
        @keyframes blinkCursor {
            0%, 49% { opacity: 1; }
            50%, 100% { opacity: 0; }
        }
        @keyframes breatheGlow {
            0%, 100% { opacity: 0.9; transform: scale(1); }
            50% { opacity: 0.4; transform: scale(0.85); }
        }
        .flow-row {
            opacity: 0;
            animation: cascadeIn 0.5s cubic-bezier(0.16, 1, 0.3, 1) forwards;
        }
        .cursor {
            animation: blinkCursor 1.05s infinite;
        }
        .sweep-beam {
            animation: flowSweep 5.5s ease-in-out infinite;
        }
        .pulse-light {
            transform-origin: center;
            animation: breatheGlow 2.2s ease-in-out infinite;
        }
        @media (prefers-reduced-motion: reduce) {
            .flow-row { opacity: 1 !important; transform: none !important; animation: none !important; }
            .sweep-beam { display: none !important; }
            .pulse-light { animation: none !important; }
        }
        </style><defs><linearGradient id="bgGrad" x1="0" y1="0" x2="0" y2="1">  <stop offset="0%" stop-color="#161b22"/>  <stop offset="100%" stop-color="#0d1117"/></linearGradient><linearGradient id="sweepGrad" x1="0" y1="0" x2="1" y2="0">  <stop offset="0%" stop-color="#ffffff" stop-opacity="0"/>  <stop offset="50%" stop-color="#ffffff" stop-opacity="0.07"/>  <stop offset="100%" stop-color="#ffffff" stop-opacity="0"/></linearGradient><clipPath id="cardsClip">  <rect x="30" y="94" width="800" height="310" rx="8"/></clipPath></defs><rect width="860" height="460" rx="12" fill="url(#bgGrad)"/><rect x="0.5" y="0.5" width="859" height="459" rx="12" fill="none" stroke="#30363d" stroke-width="1"/><path d="M 0,12 Q 0,0 12,0 L 848,0 Q 860,0 860,12 L 860,36 L 0,36 Z" fill="#161b22"/><line x1="0" y1="36" x2="860" y2="36" stroke="#30363d" stroke-width="1"/><circle cx="30" cy="18.0" r="5.5" fill="#ff5f56" stroke="#e0443e" stroke-width="0.5"/><circle cx="48" cy="18.0" r="5.5" fill="#ffbd2e" stroke="#dea123" stroke-width="0.5"/><circle cx="66" cy="18.0" r="5.5" fill="#27c93f" stroke="#1aab29" stroke-width="0.5"/><text x="430.0" y="22.5" fill="#7d8590" font-size="12" font-weight="500" text-anchor="middle">rusdi@github: ~/portfolio $ ./featured.sh</text><g transform="translate(710, 9.0)"><rect width="120" height="18" rx="9" fill="#13231b" stroke="#39d353" stroke-width="0.8"/><circle class="pulse-light" cx="12" cy="9" r="3.5" fill="#39d353"/><text x="64" y="12.5" fill="#39d353" font-size="10.5" font-weight="700" text-anchor="middle">4/4 VERIFIED</text></g><g class="flow-row" style="animation-delay: 0.08s;"><text x="30" y="60" font-size="13.5"><tspan fill="#7d8590">rusdi@github</tspan> <tspan fill="#58a6ff">~ $</tspan> <tspan fill="#e6edf3" font-weight="700">./featured.sh</tspan></text><text x="30" y="80" fill="#7d8590" font-size="11.5">🚀 Initializing featured production stack &amp; microservices matrix...</text></g><g class="flow-row" style="animation-delay: 0.22s;"><a xlink:href="https://github.com/RusdiEneri/MahasigMind" target="_blank" style="cursor: pointer;"><rect x="30" y="94" width="800" height="70" rx="8" fill="#13171f" stroke="#30363d" stroke-width="0.9"/><rect x="30" y="104" width="3.5" height="50" rx="1.75" fill="#58a6ff"/><text x="44" y="123" fill="#7d8590" font-size="12" font-weight="600">[01]</text><text x="82" y="123" font-size="15" font-weight="700">🧠 <tspan fill="#58a6ff">MahasigMind</tspan></text><rect x="223.0" y="109" width="82.0" height="19" rx="4" fill="#1c2128" stroke="#30363d" stroke-width="0.75"/><text x="264.0" y="122" fill="#9ca3af" font-size="10.5" text-anchor="middle">Laravel 11</text><rect x="311.0" y="109" width="68.4" height="19" rx="4" fill="#1c2128" stroke="#30363d" stroke-width="0.75"/><text x="345.2" y="122" fill="#9ca3af" font-size="10.5" text-anchor="middle">React 19</text><rect x="385.4" y="109" width="82.0" height="19" rx="4" fill="#1c2128" stroke="#30363d" stroke-width="0.75"/><text x="426.4" y="122" fill="#9ca3af" font-size="10.5" text-anchor="middle">TypeScript</text><rect x="473.4" y="109" width="82.0" height="19" rx="4" fill="#1c2128" stroke="#30363d" stroke-width="0.75"/><text x="514.4" y="122" fill="#9ca3af" font-size="10.5" text-anchor="middle">Inertia.js</text><rect x="750" y="109" width="68" height="19" rx="4" fill="#13231b" stroke="#238636" stroke-width="0.8"/><circle class="pulse-light" cx="761" cy="118.5" r="3" fill="#39d353"/><text x="788" y="122" fill="#39d353" font-size="10.5" font-weight="700" text-anchor="middle">LIVE</text><text x="44" y="146" font-size="12"><tspan fill="#7d8590">Mental Health SPA Platform · Secure health records &amp; reflective journaling</tspan> <tspan fill="#58a6ff">· RusdiEneri/MahasigMind ↗</tspan></text></a></g><g class="flow-row" style="animation-delay: 0.38s;"><a xlink:href="https://github.com/RusdiEneri/Cuanin" target="_blank" style="cursor: pointer;"><rect x="30" y="174" width="800" height="70" rx="8" fill="#13171f" stroke="#30363d" stroke-width="0.9"/><rect x="30" y="184" width="3.5" height="50" rx="1.75" fill="#39d353"/><text x="44" y="203" fill="#7d8590" font-size="12" font-weight="600">[02]</text><text x="82" y="203" font-size="15" font-weight="700">🛒 <tspan fill="#39d353">Cuanin</tspan></text><rect x="178.0" y="189" width="82.0" height="19" rx="4" fill="#1c2128" stroke="#30363d" stroke-width="0.75"/><text x="219.0" y="202" fill="#9ca3af" font-size="10.5" text-anchor="middle">Laravel 12</text><rect x="266.0" y="189" width="48.0" height="19" rx="4" fill="#1c2128" stroke="#30363d" stroke-width="0.75"/><text x="290.0" y="202" fill="#9ca3af" font-size="10.5" text-anchor="middle">MySQL</text><rect x="320.0" y="189" width="41.2" height="19" rx="4" fill="#1c2128" stroke="#30363d" stroke-width="0.75"/><text x="340.6" y="202" fill="#9ca3af" font-size="10.5" text-anchor="middle">Vite</text><rect x="367.2" y="189" width="95.6" height="19" rx="4" fill="#1c2128" stroke="#30363d" stroke-width="0.75"/><text x="415.0" y="202" fill="#9ca3af" font-size="10.5" text-anchor="middle">Tailwind CSS</text><rect x="750" y="189" width="68" height="19" rx="4" fill="#13231b" stroke="#238636" stroke-width="0.8"/><circle class="pulse-light" cx="761" cy="198.5" r="3" fill="#39d353"/><text x="788" y="202" fill="#39d353" font-size="10.5" font-weight="700" text-anchor="middle">LIVE</text><text x="44" y="226" font-size="12"><tspan fill="#7d8590">Preloved Multi-Vendor Marketplace · RBAC &amp; WhatsApp price negotiation</tspan> <tspan fill="#58a6ff">· RusdiEneri/Cuanin ↗</tspan></text></a></g><g class="flow-row" style="animation-delay: 0.54s;"><a xlink:href="https://github.com/RusdiEneri/jt-express-scheduling" target="_blank" style="cursor: pointer;"><rect x="30" y="254" width="800" height="70" rx="8" fill="#13171f" stroke="#30363d" stroke-width="0.9"/><rect x="30" y="264" width="3.5" height="50" rx="1.75" fill="#f0883e"/><text x="44" y="283" fill="#7d8590" font-size="12" font-weight="600">[03]</text><text x="82" y="283" font-size="15" font-weight="700">🚚 <tspan fill="#f0883e">J&amp;T Scheduling</tspan></text><rect x="250.0" y="269" width="54.8" height="19" rx="4" fill="#1c2128" stroke="#30363d" stroke-width="0.75"/><text x="277.4" y="282" fill="#9ca3af" font-size="10.5" text-anchor="middle">Python</text><rect x="310.8" y="269" width="129.6" height="19" rx="4" fill="#1c2128" stroke="#30363d" stroke-width="0.75"/><text x="375.6" y="282" fill="#9ca3af" font-size="10.5" text-anchor="middle">Genetic Algorithm</text><rect x="446.4" y="269" width="75.2" height="19" rx="4" fill="#1c2128" stroke="#30363d" stroke-width="0.75"/><text x="484.0" y="282" fill="#9ca3af" font-size="10.5" text-anchor="middle">Streamlit</text><rect x="527.6" y="269" width="54.8" height="19" rx="4" fill="#1c2128" stroke="#30363d" stroke-width="0.75"/><text x="555.0" y="282" fill="#9ca3af" font-size="10.5" text-anchor="middle">Pandas</text><rect x="750" y="269" width="68" height="19" rx="4" fill="#13231b" stroke="#238636" stroke-width="0.8"/><circle class="pulse-light" cx="761" cy="278.5" r="3" fill="#39d353"/><text x="788" y="282" fill="#39d353" font-size="10.5" font-weight="700" text-anchor="middle">LIVE</text><text x="44" y="306" font-size="12"><tspan fill="#7d8590">Algorithmic Shift Optimizer · Genetic Algorithm for complex constraints</tspan> <tspan fill="#58a6ff">· RusdiEneri/jt-express-scheduling ↗</tspan></text></a></g><g class="flow-row" style="animation-delay: 0.70s;"><a xlink:href="https://github.com/RusdiEneri/alam-makmur-jaya" target="_blank" style="cursor: pointer;"><rect x="30" y="334" width="800" height="70" rx="8" fill="#13171f" stroke="#30363d" stroke-width="0.9"/><rect x="30" y="344" width="3.5" height="50" rx="1.75" fill="#bc8cff"/><text x="44" y="363" fill="#7d8590" font-size="12" font-weight="600">[04]</text><text x="82" y="363" font-size="15" font-weight="700">🏢 <tspan fill="#bc8cff">Alam Makmur Jaya</tspan></text><rect x="268.0" y="349" width="82.0" height="19" rx="4" fill="#1c2128" stroke="#30363d" stroke-width="0.75"/><text x="309.0" y="362" fill="#9ca3af" font-size="10.5" text-anchor="middle">Express.js</text><rect x="356.0" y="349" width="41.2" height="19" rx="4" fill="#1c2128" stroke="#30363d" stroke-width="0.75"/><text x="376.6" y="362" fill="#9ca3af" font-size="10.5" text-anchor="middle">Vite</text><rect x="403.2" y="349" width="68.4" height="19" rx="4" fill="#1c2128" stroke="#30363d" stroke-width="0.75"/><text x="437.4" y="362" fill="#9ca3af" font-size="10.5" text-anchor="middle">REST API</text><rect x="477.6" y="349" width="82.0" height="19" rx="4" fill="#1c2128" stroke="#30363d" stroke-width="0.75"/><text x="518.6" y="362" fill="#9ca3af" font-size="10.5" text-anchor="middle">Vanilla JS</text><rect x="750" y="349" width="68" height="19" rx="4" fill="#13231b" stroke="#238636" stroke-width="0.8"/><circle class="pulse-light" cx="761" cy="358.5" r="3" fill="#39d353"/><text x="788" y="362" fill="#39d353" font-size="10.5" font-weight="700" text-anchor="middle">LIVE</text><text x="44" y="386" font-size="12"><tspan fill="#7d8590">Centralized ERP &amp; Retail System · Real-time inventory &amp; automated PDF reporting</tspan> <tspan fill="#58a6ff">· RusdiEneri/alam-makmur-jaya ↗</tspan></text></a></g><g clip-path="url(#cardsClip)"><rect class="sweep-beam" x="30" y="94" width="400" height="310" fill="url(#sweepGrad)"/></g><g class="flow-row" style="animation-delay: 0.95s;"><line x1="30" y1="426" x2="830" y2="426" stroke="#30363d" stroke-width="0.8" stroke-dasharray="3,3"/><text x="30" y="450" font-size="13"><tspan fill="#7d8590">rusdi@github</tspan> <tspan fill="#58a6ff">~ $</tspan> <tspan fill="#39d353">open-selected --interactive</tspan></text><rect class="cursor" x="380" y="437" width="7.5" height="15" fill="#39d353"/></g></svg>